# xmcd
#
# Track frame offsets:
#	150
#	9339
#	20820
#	32250
#	45008
#	67821
#	76079
#	88449
#	98355
#	114340
#	125970
#	135392
#	144961
#	156091
#
# Disc length: 2309 seconds
#
# Revision: 0
# Processed by: cddbd v1.5.2PL0 Copyright (c) Steve Scherf et al.
# Submitted via: audiograbber 1.83.01
#
DISCID=9c09030e
DTITLE=Hank Williams - Hank Williams - Hits auf deutsch
DYEAR=1900
DGENRE=Oldies
TTITLE0=Gerd Böttcher - Jambalaya
TTITLE1=Anna-Lena Löfgren - So Kalt Wie Eine Winternacht
TTITLE2=Peter Beil - Vor Deinem Fenster
TTITLE3=Heidi Brühl - Geh' Nicht Fort
TTITLE4=Ricky Shayne - Ein Teil Von Dir
TTITLE5=Greetje Kauffeld - Nur Wer Liebt, Ist Nie Allein
TTITLE6=Louis Neefs - Schöne Navaja
TTITLE7=Renée Franke - Leb' Wohl Und Auf Wiedersehn
TTITLE8=Horst Winter - Halb Soviel
TTITLE9=Knut Kiesewetter - Einsame Stunden
TTITLE10=Fred Bertelmann - Hey, Hallo Susanne
TTITLE11=Peter Alexander - Himmel Über Der Prärie
TTITLE12=Gerhard Wendland - Jambalaya
TTITLE13=Medium Terzett - Ein Loch Ist Im Eimer
EXTD=
EXTT0=
EXTT1=
EXTT2=
EXTT3=
EXTT4=
EXTT5=
EXTT6=
EXTT7=
EXTT8=
EXTT9=
EXTT10=
EXTT11=
EXTT12=
EXTT13=
PLAYORDER=
